<svg width="26" height="26" viewBox="0 0 26 26" fill="none" xmlns="http://www.w3.org/2000/svg">
<g clip-path="url(#clip0)">
<path d="M13.0043 6.32446C9.31771 6.32446 6.33313 9.3123 6.33313 12.9956C6.33313 16.6822 9.32096 19.6668 13.0043 19.6668C16.6909 19.6668 19.6754 16.679 19.6754 12.9956C19.6754 9.30905 16.6876 6.32446 13.0043 6.32446ZM13.0043 17.3257C10.6112 17.3257 8.67421 15.3876 8.67421 12.9956C8.67421 10.6036 10.6123 8.66555 13.0043 8.66555C15.3963 8.66555 17.3344 10.6036 17.3344 12.9956C17.3354 15.3876 15.3974 17.3257 13.0043 17.3257Z" fill="white"/>
<path d="M18.3585 0.08704C15.9665 -0.0245434 10.0418 -0.0191267 7.64759 0.08704C5.54375 0.185623 3.688 0.693707 2.19192 2.18979C-0.308412 4.69013 0.011171 8.0593 0.011171 13.0004C0.011171 18.0574 -0.270496 21.3486 2.19192 23.811C4.702 26.32 8.11992 25.9917 13.0025 25.9917C18.0118 25.9917 19.7408 25.995 21.5121 25.3092C23.9203 24.3743 25.7382 22.2217 25.9158 18.3553C26.0285 15.9622 26.022 10.0385 25.9158 7.64438C25.7013 3.08029 23.2519 0.312373 18.3585 0.08704ZM22.1448 22.1567C20.5057 23.7958 18.2318 23.6496 12.9711 23.6496C7.55442 23.6496 5.38234 23.7297 3.79742 22.1405C1.972 20.3237 2.30242 17.4063 2.30242 12.983C2.30242 6.99763 1.68817 2.68704 7.69525 2.37937C9.07542 2.33062 9.48167 2.31437 12.9559 2.31437L13.0047 2.34687C18.7778 2.34687 23.3072 1.74237 23.5791 7.74838C23.6408 9.1188 23.6549 9.53046 23.6549 12.9993C23.6538 18.3531 23.7557 20.5382 22.1448 22.1567Z" fill="white"/>
<path d="M19.9399 7.62028C20.8009 7.62028 21.4988 6.92233 21.4988 6.06136C21.4988 5.20039 20.8009 4.50244 19.9399 4.50244C19.0789 4.50244 18.381 5.20039 18.381 6.06136C18.381 6.92233 19.0789 7.62028 19.9399 7.62028Z" fill="white"/>
</g>
<defs>
<clipPath id="clip0">
<rect width="26" height="26" fill="white"/>
</clipPath>
</defs>
</svg>
