<svg width="34" height="19" viewBox="0 0 34 19" fill="none" xmlns="http://www.w3.org/2000/svg">
<path fill-rule="evenodd" clip-rule="evenodd" d="M16.2583 18.8806H18.2668C18.2668 18.8806 18.8694 18.7801 19.1707 18.4788C19.472 18.1776 19.472 17.575 19.472 17.575C19.472 17.575 19.472 14.9638 20.6771 14.5621C21.8822 14.1604 23.4891 17.1733 25.096 18.278C26.3011 19.1818 27.205 18.981 27.205 18.981L31.6238 18.8806C31.6238 18.8806 33.9337 18.7801 32.829 16.872C32.7285 16.7716 32.2264 15.5664 29.5148 13.0557C26.7028 10.4446 27.1045 10.9467 30.4187 6.42742C32.4272 3.71585 33.2307 2.109 33.0298 1.30557C32.829 0.60257 31.3225 0.803427 31.3225 0.803427H26.3011C26.3011 0.803427 25.8994 0.702999 25.6985 0.903856C25.3972 1.10471 25.2968 1.406 25.2968 1.406C25.2968 1.406 24.4934 3.515 23.4891 5.32271C21.2797 9.03856 20.3758 9.23942 20.0745 9.03856C19.2711 8.53642 19.472 6.82914 19.472 5.72442C19.472 2.109 20.0745 0.60257 18.3673 0.200856C17.8651 0.100427 17.4634 0 16.0574 0C14.2497 0 12.7433 -3.8743e-07 11.9398 0.401714C11.3373 0.702999 10.9355 1.30557 11.2368 1.30557C11.5381 1.30557 12.3415 1.50643 12.7433 2.00857C13.145 2.91243 13.145 4.41885 13.145 4.41885C13.145 4.41885 13.4463 8.73728 12.442 9.23942C11.739 9.64114 10.8351 8.83771 8.82655 5.42314C7.82226 3.71585 7.01884 1.70728 7.01884 1.70728C7.01884 1.70728 6.91841 1.30557 6.61712 1.10471C6.31584 0.903857 5.81369 0.803427 5.81369 0.803427H1.09355C1.09355 0.803427 0.390555 0.803428 0.0892698 1.10471C-0.111587 1.406 0.0892698 1.90814 0.0892698 1.90814C0.0892698 1.90814 3.80512 10.545 8.02312 14.9638C11.9398 19.1818 16.2583 18.8806 16.2583 18.8806Z" fill="white"/>
</svg>
