<svg width="19" height="12" viewBox="0 0 19 12" fill="none" xmlns="http://www.w3.org/2000/svg">
<path d="M17.1713 1.92579H1.47291C1.2416 1.92579 1.01977 1.84067 0.856213 1.68917C0.692656 1.53767 0.600771 1.33218 0.600771 1.11792C0.600771 0.903664 0.692656 0.698181 0.856213 0.546677C1.01977 0.395173 1.2416 0.310059 1.47291 0.310059H17.1713C17.4026 0.310059 17.6245 0.395173 17.788 0.546677C17.9516 0.698181 18.0435 0.903664 18.0435 1.11792C18.0435 1.33218 17.9516 1.53767 17.788 1.68917C17.6245 1.84067 17.4026 1.92579 17.1713 1.92579ZM1.47291 5.15724H13.6828C13.9141 5.15724 14.1359 5.24236 14.2995 5.39386C14.463 5.54537 14.5549 5.75085 14.5549 5.96511C14.5549 6.17937 14.463 6.38485 14.2995 6.53635C14.1359 6.68786 13.9141 6.77297 13.6828 6.77297H1.47291C1.2416 6.77297 1.01977 6.68786 0.856213 6.53635C0.692656 6.38485 0.600771 6.17937 0.600771 5.96511C0.600771 5.75085 0.692656 5.54537 0.856213 5.39386C1.01977 5.24236 1.2416 5.15724 1.47291 5.15724ZM1.47291 10.0044H17.1713C17.4026 10.0044 17.6245 10.0895 17.788 10.241C17.9516 10.3926 18.0435 10.598 18.0435 10.8123C18.0435 11.0266 17.9516 11.232 17.788 11.3835C17.6245 11.535 17.4026 11.6202 17.1713 11.6202H1.47291C1.2416 11.6202 1.01977 11.535 0.856213 11.3835C0.692656 11.232 0.600771 11.0266 0.600771 10.8123C0.600771 10.598 0.692656 10.3926 0.856213 10.241C1.01977 10.0895 1.2416 10.0044 1.47291 10.0044Z" fill="white"/>
</svg>
