<svg width="17" height="17" viewBox="0 0 17 17" fill="none" xmlns="http://www.w3.org/2000/svg">
<path d="M16.64 7.97751C16.5746 7.80873 16.4764 7.65453 16.3512 7.52376L9.47625 0.648761C9.34805 0.520558 9.19585 0.418862 9.02834 0.349479C8.86084 0.280096 8.68131 0.244385 8.5 0.244385C8.13383 0.244385 7.78267 0.389843 7.52375 0.648761C7.39555 0.776964 7.29385 0.929163 7.22447 1.09667C7.15508 1.26417 7.11937 1.4437 7.11937 1.62501C7.11937 1.99118 7.26483 2.34234 7.52375 2.60126L12.0612 7.12501H1.625C1.26033 7.12501 0.910591 7.26988 0.652728 7.52774C0.394866 7.7856 0.25 8.13534 0.25 8.50001C0.25 8.86469 0.394866 9.21442 0.652728 9.47229C0.910591 9.73015 1.26033 9.87501 1.625 9.87501H12.0612L7.52375 14.3988C7.39487 14.5266 7.29258 14.6787 7.22277 14.8462C7.15297 15.0138 7.11703 15.1935 7.11703 15.375C7.11703 15.5565 7.15297 15.7363 7.22277 15.9038C7.29258 16.0714 7.39487 16.2234 7.52375 16.3513C7.65157 16.4801 7.80365 16.5824 7.97121 16.6522C8.13876 16.722 8.31848 16.758 8.5 16.758C8.68152 16.758 8.86124 16.722 9.02879 16.6522C9.19635 16.5824 9.34842 16.4801 9.47625 16.3513L16.3512 9.47626C16.4764 9.3455 16.5746 9.1913 16.64 9.02251C16.7775 8.68775 16.7775 8.31227 16.64 7.97751Z" fill="white"/>
</svg>
