<svg width="46" height="46" viewBox="0 0 46 46" fill="none" xmlns="http://www.w3.org/2000/svg">
<g clip-path="url(#clip0)">
<path d="M43.7751 28.1934C43.7751 27.789 43.9954 27.4685 44.4183 26.8899C45.0861 25.9758 46.0008 24.7227 46.0008 22.258C46.0008 18.667 43.3959 16.0769 40.8072 15.6495V11.1291H39.3233V8.16134H34.8717V9.74017C31.6525 3.78683 25.3744 0 18.5494 0C8.32171 0 0.000976562 8.32073 0.000976562 18.5484C0.000976562 28.7761 8.32171 37.0968 18.5494 37.0968C22.2153 37.0968 25.85 36.0226 28.9364 34.0548V42.2903C28.9364 44.3357 30.6006 46 32.6462 46H41.5494C43.5948 46 45.2591 44.3358 45.2591 42.2903V33.3871C45.2591 31.4662 44.6722 30.3429 44.2435 29.523C43.9717 29.0021 43.7751 28.626 43.7751 28.1934ZM39.3235 12.6129V15.5807H34.8719V12.6129H39.3235ZM36.3558 9.64521H37.8396V11.1291H36.3558V9.64521ZM34.8719 11.0756V11.1291H34.7546L34.8719 11.0756ZM29.9518 29.523C29.6208 30.1566 29.1987 30.9749 29.0222 32.197C25.9969 34.3967 22.2909 35.6128 18.5494 35.6128C9.14017 35.6128 1.48484 27.9582 1.48484 18.5484C1.48484 9.13919 9.14017 1.48387 18.5494 1.48387C25.085 1.48387 31.0718 5.26104 33.9112 11.1291H33.388V15.6497C32.8146 15.7446 32.2426 15.9442 31.6964 16.2388C30.5968 9.93676 25.0975 5.19361 18.5492 5.19361C11.1856 5.19361 5.19443 11.1848 5.19443 18.5484C5.19443 25.912 11.1856 31.9032 18.5492 31.9032C23.0899 31.9032 27.1283 29.9586 29.6047 26.651C29.6626 26.7319 29.722 26.8142 29.7767 26.8899C30.1997 27.4685 30.42 27.789 30.42 28.1934C30.42 28.626 30.2234 29.0021 29.9518 29.523ZM28.7797 25.2487C26.611 28.5383 22.9141 30.4192 18.5492 30.4192C12.0039 30.4192 6.67829 25.0936 6.67829 18.5482C6.67829 12.0029 12.0039 6.67732 18.5492 6.67732C24.6219 6.67732 29.6745 11.2669 30.3334 17.2306C29.0825 18.4162 28.1944 20.1657 28.1944 22.258C28.1944 23.5459 28.4459 24.498 28.7797 25.2487ZM41.5492 44.5161H32.646C31.4189 44.5161 30.4201 43.5175 30.4201 42.2903V33.3871C30.4201 31.8305 30.8698 30.9698 31.2666 30.2101C31.5797 29.6099 31.904 28.9904 31.904 28.1934C31.904 27.286 31.4322 26.6398 30.9751 26.0144C30.3674 25.182 29.6781 24.239 29.6781 22.258C29.6781 19.0402 32.2712 17.0644 34.1297 17.0644H40.0652C41.9237 17.0644 44.5168 19.0402 44.5168 22.258C44.5168 24.239 43.8275 25.1819 43.2199 26.0144C42.7629 26.6399 42.2909 27.286 42.2909 28.1934C42.2909 28.9902 42.6151 29.6097 42.9283 30.2101C43.3253 30.9698 43.7748 31.8305 43.7748 33.3871V42.2903H43.7751C43.7751 43.5174 42.7765 44.5161 41.5492 44.5161Z" fill="#68EF4D"/>
<path d="M43.7751 28.1934C43.7751 27.789 43.9954 27.4685 44.4183 26.8899C45.0861 25.9758 46.0008 24.7227 46.0008 22.258C46.0008 18.667 43.3959 16.0769 40.8072 15.6495V11.1291H39.3233V8.16134H34.8717V9.74017C31.6525 3.78683 25.3744 0 18.5494 0C8.32171 0 0.000976562 8.32073 0.000976562 18.5484C0.000976562 28.7761 8.32171 37.0968 18.5494 37.0968C22.2153 37.0968 25.85 36.0226 28.9364 34.0548V42.2903C28.9364 44.3357 30.6006 46 32.6462 46H41.5494C43.5948 46 45.2591 44.3358 45.2591 42.2903V33.3871C45.2591 31.4662 44.6722 30.3429 44.2435 29.523C43.9717 29.0021 43.7751 28.626 43.7751 28.1934ZM39.3235 12.6129V15.5807H34.8719V12.6129H39.3235ZM36.3558 9.64521H37.8396V11.1291H36.3558V9.64521ZM34.8719 11.0756V11.1291H34.7546L34.8719 11.0756ZM29.9518 29.523C29.6208 30.1566 29.1987 30.9749 29.0222 32.197C25.9969 34.3967 22.2909 35.6128 18.5494 35.6128C9.14017 35.6128 1.48484 27.9582 1.48484 18.5484C1.48484 9.13919 9.14017 1.48387 18.5494 1.48387C25.085 1.48387 31.0718 5.26104 33.9112 11.1291H33.388V15.6497C32.8146 15.7446 32.2426 15.9442 31.6964 16.2388C30.5968 9.93676 25.0975 5.19361 18.5492 5.19361C11.1856 5.19361 5.19443 11.1848 5.19443 18.5484C5.19443 25.912 11.1856 31.9032 18.5492 31.9032C23.0899 31.9032 27.1283 29.9586 29.6047 26.651C29.6626 26.7319 29.722 26.8142 29.7767 26.8899C30.1997 27.4685 30.42 27.789 30.42 28.1934C30.42 28.626 30.2234 29.0021 29.9518 29.523ZM28.7797 25.2487C26.611 28.5383 22.9141 30.4192 18.5492 30.4192C12.0039 30.4192 6.67829 25.0936 6.67829 18.5482C6.67829 12.0029 12.0039 6.67732 18.5492 6.67732C24.6219 6.67732 29.6745 11.2669 30.3334 17.2306C29.0825 18.4162 28.1944 20.1657 28.1944 22.258C28.1944 23.5459 28.4459 24.498 28.7797 25.2487ZM41.5492 44.5161H32.646C31.4189 44.5161 30.4201 43.5175 30.4201 42.2903V33.3871C30.4201 31.8305 30.8698 30.9698 31.2666 30.2101C31.5797 29.6099 31.904 28.9904 31.904 28.1934C31.904 27.286 31.4322 26.6398 30.9751 26.0144C30.3674 25.182 29.6781 24.239 29.6781 22.258C29.6781 19.0402 32.2712 17.0644 34.1297 17.0644H40.0652C41.9237 17.0644 44.5168 19.0402 44.5168 22.258C44.5168 24.239 43.8275 25.1819 43.2199 26.0144C42.7629 26.6399 42.2909 27.286 42.2909 28.1934C42.2909 28.9902 42.6151 29.6097 42.9283 30.2101C43.3253 30.9698 43.7748 31.8305 43.7748 33.3871V42.2903H43.7751C43.7751 43.5174 42.7765 44.5161 41.5492 44.5161Z" fill="url(#paint0_linear)"/>
<path d="M37.0968 21.5161H31.1614V23H37.0968V21.5161Z" fill="#68EF4D"/>
<path d="M37.0968 21.5161H31.1614V23H37.0968V21.5161Z" fill="url(#paint1_linear)"/>
<path d="M42.2904 40.8064H31.9033V42.2903H42.2904V40.8064Z" fill="#68EF4D"/>
<path d="M42.2904 40.8064H31.9033V42.2903H42.2904V40.8064Z" fill="url(#paint2_linear)"/>
<path d="M43.0322 21.5161H41.5483V23H43.0322V21.5161Z" fill="#68EF4D"/>
<path d="M43.0322 21.5161H41.5483V23H43.0322V21.5161Z" fill="url(#paint3_linear)"/>
<path d="M40.0646 21.5161H38.5807V23H40.0646V21.5161Z" fill="#68EF4D"/>
<path d="M40.0646 21.5161H38.5807V23H40.0646V21.5161Z" fill="url(#paint4_linear)"/>
<path d="M6.6776 34.1289H5.19373C5.19373 36.992 2.86402 39.3225 0.00012207 39.3225V40.8064C2.86402 40.8064 5.19373 43.1367 5.19373 46H6.6776C6.6776 43.1369 9.00731 40.8064 11.8712 40.8064V39.3225C9.00715 39.3225 6.6776 36.992 6.6776 34.1289ZM5.93559 42.9424C5.29899 41.7108 4.28917 40.701 3.0576 40.0644C4.28917 39.4278 5.29899 38.4179 5.93559 37.1864C6.57218 38.4179 7.582 39.4278 8.81357 40.0644C7.58185 40.701 6.57203 41.7108 5.93559 42.9424Z" fill="#68EF4D"/>
<path d="M6.6776 34.1289H5.19373C5.19373 36.992 2.86402 39.3225 0.00012207 39.3225V40.8064C2.86402 40.8064 5.19373 43.1367 5.19373 46H6.6776C6.6776 43.1369 9.00731 40.8064 11.8712 40.8064V39.3225C9.00715 39.3225 6.6776 36.992 6.6776 34.1289ZM5.93559 42.9424C5.29899 41.7108 4.28917 40.701 3.0576 40.0644C4.28917 39.4278 5.29899 38.4179 5.93559 37.1864C6.57218 38.4179 7.582 39.4278 8.81357 40.0644C7.58185 40.701 6.57203 41.7108 5.93559 42.9424Z" fill="url(#paint5_linear)"/>
<path d="M14.8388 15.5806H13.3549C13.3549 17.626 11.6907 19.2903 9.64514 19.2903V20.7742C11.6906 20.7742 13.3549 22.4383 13.3549 24.4839H14.8388C14.8388 22.4385 16.5029 20.7742 18.5485 20.7742V19.2903C16.5027 19.2902 14.8388 17.626 14.8388 15.5806ZM14.0969 21.8104C13.6585 21.0827 13.0456 20.4704 12.3185 20.032C13.0462 19.5936 13.6585 18.9807 14.0969 18.2536C14.5353 18.9813 15.1482 19.5936 15.8753 20.032C15.1482 20.4706 14.5353 21.0835 14.0969 21.8104Z" fill="#68EF4D"/>
<path d="M14.8388 15.5806H13.3549C13.3549 17.626 11.6907 19.2903 9.64514 19.2903V20.7742C11.6906 20.7742 13.3549 22.4383 13.3549 24.4839H14.8388C14.8388 22.4385 16.5029 20.7742 18.5485 20.7742V19.2903C16.5027 19.2902 14.8388 17.626 14.8388 15.5806ZM14.0969 21.8104C13.6585 21.0827 13.0456 20.4704 12.3185 20.032C13.0462 19.5936 13.6585 18.9807 14.0969 18.2536C14.5353 18.9813 15.1482 19.5936 15.8753 20.032C15.1482 20.4706 14.5353 21.0835 14.0969 21.8104Z" fill="url(#paint6_linear)"/>
</g>
<defs>
<linearGradient id="paint0_linear" x1="23.0009" y1="0" x2="23.0009" y2="46" gradientUnits="userSpaceOnUse">
<stop offset="0.0364583" stop-color="#3CDAF8"/>
<stop offset="0.541667" stop-color="#80E7FA" stop-opacity="0.648649"/>
<stop offset="1" stop-color="white" stop-opacity="0"/>
</linearGradient>
<linearGradient id="paint1_linear" x1="34.1291" y1="21.5161" x2="34.1291" y2="23" gradientUnits="userSpaceOnUse">
<stop offset="0.0364583" stop-color="#3CDAF8"/>
<stop offset="0.541667" stop-color="#80E7FA" stop-opacity="0.648649"/>
<stop offset="1" stop-color="white" stop-opacity="0"/>
</linearGradient>
<linearGradient id="paint2_linear" x1="37.0968" y1="40.8064" x2="37.0968" y2="42.2903" gradientUnits="userSpaceOnUse">
<stop offset="0.0364583" stop-color="#3CDAF8"/>
<stop offset="0.541667" stop-color="#80E7FA" stop-opacity="0.648649"/>
<stop offset="1" stop-color="white" stop-opacity="0"/>
</linearGradient>
<linearGradient id="paint3_linear" x1="42.2903" y1="21.5161" x2="42.2903" y2="23" gradientUnits="userSpaceOnUse">
<stop offset="0.0364583" stop-color="#3CDAF8"/>
<stop offset="0.541667" stop-color="#80E7FA" stop-opacity="0.648649"/>
<stop offset="1" stop-color="white" stop-opacity="0"/>
</linearGradient>
<linearGradient id="paint4_linear" x1="39.3226" y1="21.5161" x2="39.3226" y2="23" gradientUnits="userSpaceOnUse">
<stop offset="0.0364583" stop-color="#3CDAF8"/>
<stop offset="0.541667" stop-color="#80E7FA" stop-opacity="0.648649"/>
<stop offset="1" stop-color="white" stop-opacity="0"/>
</linearGradient>
<linearGradient id="paint5_linear" x1="5.93566" y1="34.1289" x2="5.93566" y2="46" gradientUnits="userSpaceOnUse">
<stop offset="0.0364583" stop-color="#3CDAF8"/>
<stop offset="0.541667" stop-color="#80E7FA" stop-opacity="0.648649"/>
<stop offset="1" stop-color="white" stop-opacity="0"/>
</linearGradient>
<linearGradient id="paint6_linear" x1="14.0968" y1="15.5806" x2="14.0968" y2="24.4839" gradientUnits="userSpaceOnUse">
<stop offset="0.0364583" stop-color="#3CDAF8"/>
<stop offset="0.541667" stop-color="#80E7FA" stop-opacity="0.648649"/>
<stop offset="1" stop-color="white" stop-opacity="0"/>
</linearGradient>
<clipPath id="clip0">
<rect width="46" height="46" fill="white"/>
</clipPath>
</defs>
</svg>
