<svg width="46" height="51" viewBox="0 0 46 51" fill="none" xmlns="http://www.w3.org/2000/svg">
<path d="M21.3293 47.4779H6.11851V35.2561C6.11851 34.802 5.75045 34.434 5.29633 34.434C4.84221 34.434 4.47415 34.802 4.47415 35.2561V39.7499H0.822176C0.368057 39.7499 0 40.118 0 40.5721V50.1768C0 50.6309 0.368057 50.999 0.822176 50.999H5.29613C5.75025 50.999 6.11831 50.6309 6.11831 50.1768V49.1222H21.3294C21.7835 49.1222 22.1515 48.7541 22.1515 48.3C22.1514 47.846 21.7834 47.4779 21.3293 47.4779ZM4.47405 49.3546H1.64445V41.3943H4.47405V49.3546Z" fill="#68EF4D"/>
<path d="M21.3293 47.4779H6.11851V35.2561C6.11851 34.802 5.75045 34.434 5.29633 34.434C4.84221 34.434 4.47415 34.802 4.47415 35.2561V39.7499H0.822176C0.368057 39.7499 0 40.118 0 40.5721V50.1768C0 50.6309 0.368057 50.999 0.822176 50.999H5.29613C5.75025 50.999 6.11831 50.6309 6.11831 50.1768V49.1222H21.3294C21.7835 49.1222 22.1515 48.7541 22.1515 48.3C22.1514 47.846 21.7834 47.4779 21.3293 47.4779ZM4.47405 49.3546H1.64445V41.3943H4.47405V49.3546Z" fill="url(#paint0_linear)"/>
<path d="M41.3116 44.24H36.7845V40.3936C36.7845 39.9395 36.4164 39.5714 35.9623 39.5714C35.5082 39.5714 35.1401 39.9395 35.1401 40.3936V44.24H32.9949V14.1175H35.1401V37.6532C35.1401 38.1074 35.5082 38.4754 35.9623 38.4754C36.4164 38.4754 36.7845 38.1074 36.7845 37.6532V11.0109C36.7846 4.93943 31.845 0 25.7736 0C19.7022 0 14.7626 4.93953 14.7626 11.0109V15.8944H14.3703C13.1251 15.8944 12.1122 16.9074 12.1122 18.1524V19.0916H9.83245C6.87794 19.0916 4.47437 21.4952 4.47437 24.4497V32.5157C4.47437 32.9698 4.84242 33.3379 5.29654 33.3379C5.75066 33.3379 6.11872 32.9698 6.11872 32.5157V27.0899H23.4669C23.921 27.0899 24.2891 26.7218 24.2891 26.2677C24.2891 25.8136 23.921 25.4455 23.4669 25.4455H6.11852V24.4495C6.11852 22.4017 7.78438 20.7358 9.83225 20.7358H24.6963C26.744 20.7358 28.41 22.4016 28.41 24.4495V25.4455H26.207C25.7529 25.4455 25.3849 25.8136 25.3849 26.2677C25.3849 26.7218 25.7529 27.0899 26.207 27.0899H28.41V29.2273H23.1711C21.5209 29.2273 20.1783 30.5699 20.1783 32.2201V38.5656C20.1783 40.2158 21.5209 41.5584 23.1711 41.5584H28.41V44.2397H26.9321C24.8728 44.2397 23.1975 45.915 23.1975 47.9745V50.1777C23.1975 50.6318 23.5656 50.9999 24.0197 50.9999H44.2242C44.6783 50.9999 45.0464 50.6318 45.0464 50.1777V47.9745C45.0463 45.9152 43.3709 44.24 41.3116 44.24ZM28.4098 39.9145H23.1713C22.4277 39.9145 21.8226 39.3094 21.8226 38.5658V32.2203C21.8226 31.4767 22.4277 30.8716 23.1713 30.8716H28.4098V39.9145ZM16.4069 11.0109C16.4069 5.84607 20.6087 1.64425 25.7735 1.64425C30.9384 1.64425 35.1402 5.84607 35.1402 11.0109V12.4733H32.995V11.0109C32.995 7.02844 29.7555 3.78824 25.7735 3.78824C21.7916 3.78824 18.5521 7.02824 18.5521 11.0109V15.8944H16.4069V11.0109ZM20.7717 19.0917H13.7562V18.1525C13.7562 17.814 14.0316 17.5386 14.3701 17.5386H20.1579C20.4963 17.5386 20.7717 17.814 20.7717 18.1525V19.0917ZM24.6963 19.0917H22.4159V18.1525C22.4159 16.9203 21.4235 15.9172 20.1962 15.8963V11.0109C20.1962 7.93498 22.6981 5.4326 25.7735 5.4326C28.8489 5.4326 31.3509 7.93498 31.3509 11.0109V39.75H30.0543V24.4497C30.0543 21.4954 27.6508 19.0917 24.6963 19.0917ZM31.3509 41.3942V44.2399H30.0543V41.3942H31.3509ZM43.402 49.3558H24.8418V47.9748C24.8418 46.8221 25.7796 45.8844 26.9322 45.8844H41.3117C42.4643 45.8844 43.4021 46.8222 43.4021 47.9748V49.3558H43.402Z" fill="#68EF4D"/>
<path d="M41.3116 44.24H36.7845V40.3936C36.7845 39.9395 36.4164 39.5714 35.9623 39.5714C35.5082 39.5714 35.1401 39.9395 35.1401 40.3936V44.24H32.9949V14.1175H35.1401V37.6532C35.1401 38.1074 35.5082 38.4754 35.9623 38.4754C36.4164 38.4754 36.7845 38.1074 36.7845 37.6532V11.0109C36.7846 4.93943 31.845 0 25.7736 0C19.7022 0 14.7626 4.93953 14.7626 11.0109V15.8944H14.3703C13.1251 15.8944 12.1122 16.9074 12.1122 18.1524V19.0916H9.83245C6.87794 19.0916 4.47437 21.4952 4.47437 24.4497V32.5157C4.47437 32.9698 4.84242 33.3379 5.29654 33.3379C5.75066 33.3379 6.11872 32.9698 6.11872 32.5157V27.0899H23.4669C23.921 27.0899 24.2891 26.7218 24.2891 26.2677C24.2891 25.8136 23.921 25.4455 23.4669 25.4455H6.11852V24.4495C6.11852 22.4017 7.78438 20.7358 9.83225 20.7358H24.6963C26.744 20.7358 28.41 22.4016 28.41 24.4495V25.4455H26.207C25.7529 25.4455 25.3849 25.8136 25.3849 26.2677C25.3849 26.7218 25.7529 27.0899 26.207 27.0899H28.41V29.2273H23.1711C21.5209 29.2273 20.1783 30.5699 20.1783 32.2201V38.5656C20.1783 40.2158 21.5209 41.5584 23.1711 41.5584H28.41V44.2397H26.9321C24.8728 44.2397 23.1975 45.915 23.1975 47.9745V50.1777C23.1975 50.6318 23.5656 50.9999 24.0197 50.9999H44.2242C44.6783 50.9999 45.0464 50.6318 45.0464 50.1777V47.9745C45.0463 45.9152 43.3709 44.24 41.3116 44.24ZM28.4098 39.9145H23.1713C22.4277 39.9145 21.8226 39.3094 21.8226 38.5658V32.2203C21.8226 31.4767 22.4277 30.8716 23.1713 30.8716H28.4098V39.9145ZM16.4069 11.0109C16.4069 5.84607 20.6087 1.64425 25.7735 1.64425C30.9384 1.64425 35.1402 5.84607 35.1402 11.0109V12.4733H32.995V11.0109C32.995 7.02844 29.7555 3.78824 25.7735 3.78824C21.7916 3.78824 18.5521 7.02824 18.5521 11.0109V15.8944H16.4069V11.0109ZM20.7717 19.0917H13.7562V18.1525C13.7562 17.814 14.0316 17.5386 14.3701 17.5386H20.1579C20.4963 17.5386 20.7717 17.814 20.7717 18.1525V19.0917ZM24.6963 19.0917H22.4159V18.1525C22.4159 16.9203 21.4235 15.9172 20.1962 15.8963V11.0109C20.1962 7.93498 22.6981 5.4326 25.7735 5.4326C28.8489 5.4326 31.3509 7.93498 31.3509 11.0109V39.75H30.0543V24.4497C30.0543 21.4954 27.6508 19.0917 24.6963 19.0917ZM31.3509 41.3942V44.2399H30.0543V41.3942H31.3509ZM43.402 49.3558H24.8418V47.9748C24.8418 46.8221 25.7796 45.8844 26.9322 45.8844H41.3117C42.4643 45.8844 43.4021 46.8222 43.4021 47.9748V49.3558H43.402Z" fill="url(#paint1_linear)"/>
<defs>
<linearGradient id="paint0_linear" x1="11.0758" y1="34.434" x2="11.0758" y2="50.999" gradientUnits="userSpaceOnUse">
<stop offset="0.0364583" stop-color="#3CDAF8"/>
<stop offset="0.541667" stop-color="#80E7FA" stop-opacity="0.648649"/>
<stop offset="1" stop-color="white" stop-opacity="0"/>
</linearGradient>
<linearGradient id="paint1_linear" x1="24.7604" y1="0" x2="24.7604" y2="50.9999" gradientUnits="userSpaceOnUse">
<stop offset="0.0364583" stop-color="#3CDAF8"/>
<stop offset="0.541667" stop-color="#80E7FA" stop-opacity="0.648649"/>
<stop offset="1" stop-color="white" stop-opacity="0"/>
</linearGradient>
</defs>
</svg>
