<svg width="46" height="46" viewBox="0 0 46 46" fill="none" xmlns="http://www.w3.org/2000/svg">
<path d="M3.99063 31.1082C6.47829 31.1082 8.12798 29.4873 8.19732 29.4181L8.71844 28.897L8.19732 28.3759C8.12798 28.3065 6.47845 26.6858 3.99063 26.6858C2.26059 26.6858 0.69362 28.2035 0.521119 28.3759L0 28.8969L0.521119 29.418C0.69362 29.5905 2.26075 31.1082 3.99063 31.1082ZM3.99063 28.1598C5.03507 28.1598 5.9004 28.5526 6.46068 28.8992C5.90418 29.2448 5.04403 29.634 3.99063 29.634C3.37957 29.634 2.69633 29.2581 2.19282 28.8969C2.69633 28.5358 3.37957 28.1598 3.99063 28.1598Z" fill="#68EF4D"/>
<path d="M3.99063 31.1082C6.47829 31.1082 8.12798 29.4873 8.19732 29.4181L8.71844 28.897L8.19732 28.3759C8.12798 28.3065 6.47845 26.6858 3.99063 26.6858C2.26059 26.6858 0.69362 28.2035 0.521119 28.3759L0 28.8969L0.521119 29.418C0.69362 29.5905 2.26075 31.1082 3.99063 31.1082ZM3.99063 28.1598C5.03507 28.1598 5.9004 28.5526 6.46068 28.8992C5.90418 29.2448 5.04403 29.634 3.99063 29.634C3.37957 29.634 2.69633 29.2581 2.19282 28.8969C2.69633 28.5358 3.37957 28.1598 3.99063 28.1598Z" fill="url(#paint0_linear)"/>
<path d="M9.15042 23.0001C10.7765 23.0001 12.0988 21.6778 12.0988 20.0517C12.0988 18.4256 10.7765 17.1033 9.15042 17.1033C7.52432 17.1033 6.20203 18.4256 6.20203 20.0517C6.20203 21.6778 7.52432 23.0001 9.15042 23.0001ZM9.15042 18.5775C9.96339 18.5775 10.6246 19.2387 10.6246 20.0517C10.6246 20.8646 9.96339 21.5259 9.15042 21.5259C8.33745 21.5259 7.67622 20.8646 7.67622 20.0517C7.67622 19.2387 8.33729 18.5775 9.15042 18.5775Z" fill="#68EF4D"/>
<path d="M9.15042 23.0001C10.7765 23.0001 12.0988 21.6778 12.0988 20.0517C12.0988 18.4256 10.7765 17.1033 9.15042 17.1033C7.52432 17.1033 6.20203 18.4256 6.20203 20.0517C6.20203 21.6778 7.52432 23.0001 9.15042 23.0001ZM9.15042 18.5775C9.96339 18.5775 10.6246 19.2387 10.6246 20.0517C10.6246 20.8646 9.96339 21.5259 9.15042 21.5259C8.33745 21.5259 7.67622 20.8646 7.67622 20.0517C7.67622 19.2387 8.33729 18.5775 9.15042 18.5775Z" fill="url(#paint1_linear)"/>
<path d="M15.4157 15.9977C16.6348 15.9977 17.6271 15.0056 17.6271 13.7863C17.6271 12.567 16.6348 11.5751 15.4157 11.5751C14.1965 11.5751 13.2045 12.5673 13.2045 13.7864C13.2045 15.0056 14.1965 15.9977 15.4157 15.9977ZM15.4157 13.0493C15.8225 13.0493 16.1529 13.3795 16.1529 13.7864C16.1529 14.1934 15.8226 14.5236 15.4157 14.5236C15.0087 14.5236 14.6785 14.1934 14.6785 13.7864C14.6787 13.3795 15.0089 13.0493 15.4157 13.0493Z" fill="#68EF4D"/>
<path d="M15.4157 15.9977C16.6348 15.9977 17.6271 15.0056 17.6271 13.7863C17.6271 12.567 16.6348 11.5751 15.4157 11.5751C14.1965 11.5751 13.2045 12.5673 13.2045 13.7864C13.2045 15.0056 14.1965 15.9977 15.4157 15.9977ZM15.4157 13.0493C15.8225 13.0493 16.1529 13.3795 16.1529 13.7864C16.1529 14.1934 15.8226 14.5236 15.4157 14.5236C15.0087 14.5236 14.6785 14.1934 14.6785 13.7864C14.6787 13.3795 15.0089 13.0493 15.4157 13.0493Z" fill="url(#paint2_linear)"/>
<path d="M1.77937 42.9018C1.77937 42.0889 2.4406 41.4276 3.25357 41.4276H6.93915C8.15829 41.4276 9.15052 40.4356 9.15052 39.2163C9.15052 37.9971 8.15845 37.0049 6.93915 37.0049V38.4791C7.34611 38.4791 7.67632 38.8093 7.67632 39.2163C7.67632 39.6232 7.34611 39.9534 6.93915 39.9534H3.25357C1.62747 39.9534 0.305176 41.2757 0.305176 42.9018C0.305176 44.5279 1.62747 45.8502 3.25357 45.8502H17.9956V44.376H3.25357C2.44044 44.376 1.77937 43.7148 1.77937 42.9018Z" fill="#68EF4D"/>
<path d="M1.77937 42.9018C1.77937 42.0889 2.4406 41.4276 3.25357 41.4276H6.93915C8.15829 41.4276 9.15052 40.4356 9.15052 39.2163C9.15052 37.9971 8.15845 37.0049 6.93915 37.0049V38.4791C7.34611 38.4791 7.67632 38.8093 7.67632 39.2163C7.67632 39.6232 7.34611 39.9534 6.93915 39.9534H3.25357C1.62747 39.9534 0.305176 41.2757 0.305176 42.9018C0.305176 44.5279 1.62747 45.8502 3.25357 45.8502H17.9956V44.376H3.25357C2.44044 44.376 1.77937 43.7148 1.77937 42.9018Z" fill="url(#paint3_linear)"/>
<path d="M18.7328 41.4276H13.573V42.9018H18.7328V41.4276Z" fill="#68EF4D"/>
<path d="M18.7328 41.4276H13.573V42.9018H18.7328V41.4276Z" fill="url(#paint4_linear)"/>
<path d="M44.6231 33.3194H45.2681V32.5823C45.2681 31.6336 44.7006 29.6501 42.5312 28.9277L35.6858 26.8742V3.0983C35.6858 1.4722 34.3635 0.149902 32.7374 0.149902C31.1113 0.149902 29.789 1.4722 29.789 3.0983V26.9037L22.9221 28.9352C20.7743 29.6502 20.2066 31.6337 20.2066 32.5824V33.3196H20.8516L19.474 45.027L20.9378 45.1995L22.3361 33.3197H23.11L22.4186 45.0698L23.8898 45.1559L24.5871 33.3196H25.3662V45.1132H26.8404V33.3196H27.5776V45.1132H29.0518V33.3196H29.789V45.1132H31.2632V33.3196H32.0004V45.1132H33.4746V33.3196H34.2117V45.1132H35.6859V33.3196H36.4231V45.1132H37.8973V33.3196H38.6345V45.1132H40.1087V33.3196H40.8878L41.5845 45.1567L43.0557 45.0706L42.3643 33.3197H43.1382L44.5362 45.1993L46 45.0268L44.6231 33.3194ZM31.2633 3.09846C31.2633 2.28548 31.9244 1.62426 32.7375 1.62426C33.5505 1.62426 34.2117 2.28548 34.2117 3.09846V22.263H31.2633V3.09846ZM31.2633 23.7372H34.2117V26.71L31.2633 26.69V23.7372ZM21.8285 31.8454C22.0134 31.3183 22.4306 30.6527 23.3667 30.3402L30.6337 28.1598H34.8404L42.0861 30.3328C43.0362 30.6498 43.4577 31.3183 43.6442 31.8454H21.8285Z" fill="#68EF4D"/>
<path d="M44.6231 33.3194H45.2681V32.5823C45.2681 31.6336 44.7006 29.6501 42.5312 28.9277L35.6858 26.8742V3.0983C35.6858 1.4722 34.3635 0.149902 32.7374 0.149902C31.1113 0.149902 29.789 1.4722 29.789 3.0983V26.9037L22.9221 28.9352C20.7743 29.6502 20.2066 31.6337 20.2066 32.5824V33.3196H20.8516L19.474 45.027L20.9378 45.1995L22.3361 33.3197H23.11L22.4186 45.0698L23.8898 45.1559L24.5871 33.3196H25.3662V45.1132H26.8404V33.3196H27.5776V45.1132H29.0518V33.3196H29.789V45.1132H31.2632V33.3196H32.0004V45.1132H33.4746V33.3196H34.2117V45.1132H35.6859V33.3196H36.4231V45.1132H37.8973V33.3196H38.6345V45.1132H40.1087V33.3196H40.8878L41.5845 45.1567L43.0557 45.0706L42.3643 33.3197H43.1382L44.5362 45.1993L46 45.0268L44.6231 33.3194ZM31.2633 3.09846C31.2633 2.28548 31.9244 1.62426 32.7375 1.62426C33.5505 1.62426 34.2117 2.28548 34.2117 3.09846V22.263H31.2633V3.09846ZM31.2633 23.7372H34.2117V26.71L31.2633 26.69V23.7372ZM21.8285 31.8454C22.0134 31.3183 22.4306 30.6527 23.3667 30.3402L30.6337 28.1598H34.8404L42.0861 30.3328C43.0362 30.6498 43.4577 31.3183 43.6442 31.8454H21.8285Z" fill="url(#paint5_linear)"/>
<path d="M18.7326 27.4225C18.566 27.4226 14.6328 27.4514 12.9595 29.9619C11.7138 31.8305 11.3778 35.3154 11.3644 35.4621L11.29 36.2677H12.0986C12.232 36.2677 15.3714 36.2485 17.0423 34.5776C19.0886 32.5313 19.4526 28.3955 19.4674 28.22L19.533 27.4225H18.7326ZM16.0002 33.5355C15.2057 34.3301 13.8324 34.6235 12.9443 34.731C13.1294 33.5509 13.5222 31.7745 14.1862 30.7802C15.0272 29.5183 16.8184 29.1025 17.885 28.9648C17.6579 30.3151 17.0985 32.4371 16.0002 33.5355Z" fill="#68EF4D"/>
<path d="M18.7326 27.4225C18.566 27.4226 14.6328 27.4514 12.9595 29.9619C11.7138 31.8305 11.3778 35.3154 11.3644 35.4621L11.29 36.2677H12.0986C12.232 36.2677 15.3714 36.2485 17.0423 34.5776C19.0886 32.5313 19.4526 28.3955 19.4674 28.22L19.533 27.4225H18.7326ZM16.0002 33.5355C15.2057 34.3301 13.8324 34.6235 12.9443 34.731C13.1294 33.5509 13.5222 31.7745 14.1862 30.7802C15.0272 29.5183 16.8184 29.1025 17.885 28.9648C17.6579 30.3151 17.0985 32.4371 16.0002 33.5355Z" fill="url(#paint6_linear)"/>
<path d="M5.4648 37.005H3.9906V38.4792H5.4648V37.005Z" fill="#68EF4D"/>
<path d="M5.4648 37.005H3.9906V38.4792H5.4648V37.005Z" fill="url(#paint7_linear)"/>
<path d="M5.4648 34.0566H3.9906V35.5308H5.4648V34.0566Z" fill="#68EF4D"/>
<path d="M5.4648 34.0566H3.9906V35.5308H5.4648V34.0566Z" fill="url(#paint8_linear)"/>
<defs>
<linearGradient id="paint0_linear" x1="4.35922" y1="26.6858" x2="4.35922" y2="31.1082" gradientUnits="userSpaceOnUse">
<stop offset="0.0364583" stop-color="#3CDAF8"/>
<stop offset="0.541667" stop-color="#80E7FA" stop-opacity="0.648649"/>
<stop offset="1" stop-color="white" stop-opacity="0"/>
</linearGradient>
<linearGradient id="paint1_linear" x1="9.15042" y1="17.1033" x2="9.15042" y2="23.0001" gradientUnits="userSpaceOnUse">
<stop offset="0.0364583" stop-color="#3CDAF8"/>
<stop offset="0.541667" stop-color="#80E7FA" stop-opacity="0.648649"/>
<stop offset="1" stop-color="white" stop-opacity="0"/>
</linearGradient>
<linearGradient id="paint2_linear" x1="15.4158" y1="11.5751" x2="15.4158" y2="15.9977" gradientUnits="userSpaceOnUse">
<stop offset="0.0364583" stop-color="#3CDAF8"/>
<stop offset="0.541667" stop-color="#80E7FA" stop-opacity="0.648649"/>
<stop offset="1" stop-color="white" stop-opacity="0"/>
</linearGradient>
<linearGradient id="paint3_linear" x1="9.15037" y1="37.0049" x2="9.15037" y2="45.8502" gradientUnits="userSpaceOnUse">
<stop offset="0.0364583" stop-color="#3CDAF8"/>
<stop offset="0.541667" stop-color="#80E7FA" stop-opacity="0.648649"/>
<stop offset="1" stop-color="white" stop-opacity="0"/>
</linearGradient>
<linearGradient id="paint4_linear" x1="16.1529" y1="41.4276" x2="16.1529" y2="42.9018" gradientUnits="userSpaceOnUse">
<stop offset="0.0364583" stop-color="#3CDAF8"/>
<stop offset="0.541667" stop-color="#80E7FA" stop-opacity="0.648649"/>
<stop offset="1" stop-color="white" stop-opacity="0"/>
</linearGradient>
<linearGradient id="paint5_linear" x1="32.737" y1="0.149902" x2="32.737" y2="45.1995" gradientUnits="userSpaceOnUse">
<stop offset="0.0364583" stop-color="#3CDAF8"/>
<stop offset="0.541667" stop-color="#80E7FA" stop-opacity="0.648649"/>
<stop offset="1" stop-color="white" stop-opacity="0"/>
</linearGradient>
<linearGradient id="paint6_linear" x1="15.4115" y1="27.4225" x2="15.4115" y2="36.2677" gradientUnits="userSpaceOnUse">
<stop offset="0.0364583" stop-color="#3CDAF8"/>
<stop offset="0.541667" stop-color="#80E7FA" stop-opacity="0.648649"/>
<stop offset="1" stop-color="white" stop-opacity="0"/>
</linearGradient>
<linearGradient id="paint7_linear" x1="4.7277" y1="37.005" x2="4.7277" y2="38.4792" gradientUnits="userSpaceOnUse">
<stop offset="0.0364583" stop-color="#3CDAF8"/>
<stop offset="0.541667" stop-color="#80E7FA" stop-opacity="0.648649"/>
<stop offset="1" stop-color="white" stop-opacity="0"/>
</linearGradient>
<linearGradient id="paint8_linear" x1="4.7277" y1="34.0566" x2="4.7277" y2="35.5308" gradientUnits="userSpaceOnUse">
<stop offset="0.0364583" stop-color="#3CDAF8"/>
<stop offset="0.541667" stop-color="#80E7FA" stop-opacity="0.648649"/>
<stop offset="1" stop-color="white" stop-opacity="0"/>
</linearGradient>
</defs>
</svg>
