<svg width="46" height="46" viewBox="0 0 46 46" fill="none" xmlns="http://www.w3.org/2000/svg">
<g clip-path="url(#clip0)">
<path d="M20.0323 20.7742C15.5324 20.7742 11.871 24.4356 11.871 28.9355C11.871 33.4354 15.5324 37.0969 20.0323 37.0969C24.5322 37.0969 28.1937 33.4354 28.1937 28.9355C28.1937 24.4356 24.532 20.7742 20.0323 20.7742ZM13.3548 28.9355C13.3548 25.3431 16.2083 22.4125 19.7666 22.2715C17.6417 23.7687 16.3226 26.2209 16.3226 28.9355C16.3226 31.6502 17.6417 34.1024 19.7666 35.5995C16.2083 35.4585 13.3548 32.5278 13.3548 28.9355ZM22.2536 35.2247C19.5849 34.2817 17.8064 31.7866 17.8064 28.9354C17.8064 26.0841 19.5849 23.589 22.2536 22.646C24.8451 23.5637 26.7096 26.0328 26.7096 28.9354C26.7096 31.8379 24.8451 34.307 22.2536 35.2247Z" fill="#68EF4D"/>
<path d="M20.0323 20.7742C15.5324 20.7742 11.871 24.4356 11.871 28.9355C11.871 33.4354 15.5324 37.0969 20.0323 37.0969C24.5322 37.0969 28.1937 33.4354 28.1937 28.9355C28.1937 24.4356 24.532 20.7742 20.0323 20.7742ZM13.3548 28.9355C13.3548 25.3431 16.2083 22.4125 19.7666 22.2715C17.6417 23.7687 16.3226 26.2209 16.3226 28.9355C16.3226 31.6502 17.6417 34.1024 19.7666 35.5995C16.2083 35.4585 13.3548 32.5278 13.3548 28.9355ZM22.2536 35.2247C19.5849 34.2817 17.8064 31.7866 17.8064 28.9354C17.8064 26.0841 19.5849 23.589 22.2536 22.646C24.8451 23.5637 26.7096 26.0328 26.7096 28.9354C26.7096 31.8379 24.8451 34.307 22.2536 35.2247Z" fill="url(#paint0_linear)"/>
<path d="M8.90319 2.96777C6.85775 2.96777 5.1936 4.63192 5.1936 6.67752C5.1936 8.72312 6.85775 10.3871 8.90319 10.3871C10.9486 10.3871 12.6129 8.72296 12.6129 6.67736C12.6129 4.63176 10.9486 2.96777 8.90319 2.96777ZM8.90319 8.90324C7.67605 8.90324 6.67731 7.90466 6.67731 6.67736C6.67731 5.45006 7.67605 4.45164 8.90319 4.45164C10.1303 4.45164 11.1291 5.45022 11.1291 6.67752C11.1291 7.90481 10.1303 8.90324 8.90319 8.90324Z" fill="#68EF4D"/>
<path d="M8.90319 2.96777C6.85775 2.96777 5.1936 4.63192 5.1936 6.67752C5.1936 8.72312 6.85775 10.3871 8.90319 10.3871C10.9486 10.3871 12.6129 8.72296 12.6129 6.67736C12.6129 4.63176 10.9486 2.96777 8.90319 2.96777ZM8.90319 8.90324C7.67605 8.90324 6.67731 7.90466 6.67731 6.67736C6.67731 5.45006 7.67605 4.45164 8.90319 4.45164C10.1303 4.45164 11.1291 5.45022 11.1291 6.67752C11.1291 7.90481 10.1303 8.90324 8.90319 8.90324Z" fill="url(#paint1_linear)"/>
<path d="M20.7741 2.96777C18.7286 2.96777 17.0643 4.63192 17.0643 6.67752C17.0643 8.72312 18.7286 10.3871 20.7741 10.3871C22.8195 10.3871 24.4838 8.72296 24.4838 6.67736C24.4838 4.63176 22.8195 2.96777 20.7741 2.96777ZM20.7741 8.90324C19.5469 8.90324 18.5482 7.90466 18.5482 6.67736C18.5482 5.45006 19.5469 4.45164 20.7741 4.45164C22.0012 4.45164 22.9999 5.45022 22.9999 6.67752C22.9999 7.90481 22.0012 8.90324 20.7741 8.90324Z" fill="#68EF4D"/>
<path d="M20.7741 2.96777C18.7286 2.96777 17.0643 4.63192 17.0643 6.67752C17.0643 8.72312 18.7286 10.3871 20.7741 10.3871C22.8195 10.3871 24.4838 8.72296 24.4838 6.67736C24.4838 4.63176 22.8195 2.96777 20.7741 2.96777ZM20.7741 8.90324C19.5469 8.90324 18.5482 7.90466 18.5482 6.67736C18.5482 5.45006 19.5469 4.45164 20.7741 4.45164C22.0012 4.45164 22.9999 5.45022 22.9999 6.67752C22.9999 7.90481 22.0012 8.90324 20.7741 8.90324Z" fill="url(#paint2_linear)"/>
<path d="M34.871 4.45166H29.6774V5.93553H34.871V4.45166Z" fill="#68EF4D"/>
<path d="M34.871 4.45166H29.6774V5.93553H34.871V4.45166Z" fill="url(#paint3_linear)"/>
<path d="M34.871 7.41943H29.6774V8.9033H34.871V7.41943Z" fill="#68EF4D"/>
<path d="M34.871 7.41943H29.6774V8.9033H34.871V7.41943Z" fill="url(#paint4_linear)"/>
<path d="M28.1935 4.45166H26.7096V5.93553H28.1935V4.45166Z" fill="#68EF4D"/>
<path d="M28.1935 4.45166H26.7096V5.93553H28.1935V4.45166Z" fill="url(#paint5_linear)"/>
<path d="M28.1935 7.41943H26.7096V8.9033H28.1935V7.41943Z" fill="#68EF4D"/>
<path d="M28.1935 7.41943H26.7096V8.9033H28.1935V7.41943Z" fill="url(#paint6_linear)"/>
<path d="M15.5807 4.45166H14.0968V5.93553H15.5807V4.45166Z" fill="#68EF4D"/>
<path d="M15.5807 4.45166H14.0968V5.93553H15.5807V4.45166Z" fill="url(#paint7_linear)"/>
<path d="M15.5807 7.41943H14.0968V8.9033H15.5807V7.41943Z" fill="#68EF4D"/>
<path d="M15.5807 7.41943H14.0968V8.9033H15.5807V7.41943Z" fill="url(#paint8_linear)"/>
<path d="M4.45164 41.5483H2.96777V43.0322H4.45164V41.5483Z" fill="#68EF4D"/>
<path d="M4.45164 41.5483H2.96777V43.0322H4.45164V41.5483Z" fill="url(#paint9_linear)"/>
<path d="M7.41929 41.5483H5.93542V43.0322H7.41929V41.5483Z" fill="#68EF4D"/>
<path d="M7.41929 41.5483H5.93542V43.0322H7.41929V41.5483Z" fill="url(#paint10_linear)"/>
<path d="M45.9998 26.7096H40.0644V21.516V20.774V2.22588C40.0644 0.998582 39.0658 0 37.8387 0H2.22588C0.998582 0 0 0.998582 0 2.22588V43.7741C0 45.0013 0.998582 46 2.22588 46H37.8387C39.0658 46 40.0645 45.0014 40.0645 43.7741V41.5482H46V26.7096H45.9998ZM1.48387 2.22588C1.48387 1.81625 1.81704 1.48387 2.22588 1.48387H37.8387C38.2475 1.48387 38.5807 1.81625 38.5807 2.22588V11.8709H1.48387V2.22588ZM29.8391 22.258H38.5805V34.2654C38.3475 34.1823 38.0998 34.1289 37.8385 34.1289H30.69C31.4594 32.5575 31.903 30.7992 31.903 28.9353C31.9032 26.4611 31.1397 24.1618 29.8391 22.258ZM30.4193 28.9355C30.4193 34.6631 25.7599 39.3225 20.0323 39.3225C14.3045 39.3225 9.64521 34.6631 9.64521 28.9355C9.64521 23.2078 14.3046 18.5484 20.0323 18.5484C25.7599 18.5484 30.4193 23.2078 30.4193 28.9355ZM36.3546 35.6128H37.8387C38.2475 35.6128 38.5807 35.9452 38.5807 36.3548C38.5807 36.7644 38.2475 37.0968 37.8387 37.0968H37.0966C36.8355 37.0968 36.5876 37.1501 36.3546 37.2332V35.6128ZM38.5807 43.7741H38.5805C38.5805 44.1836 38.2473 44.5161 37.8385 44.5161H2.22572C1.81688 44.5161 1.48371 44.1837 1.48371 43.7741V13.3548H38.5805V20.7741H28.6305C26.4663 18.4949 23.4161 17.0644 20.0323 17.0644C13.487 17.0644 8.16134 22.39 8.16134 28.9353C8.16134 35.4806 13.487 40.8062 20.0323 40.8062C24.1032 40.8062 27.7001 38.7451 29.8391 35.6126H34.8709V39.3224C34.8709 40.5495 35.8695 41.5482 37.0968 41.5482H38.5807V43.7741ZM44.5161 40.0644H44.516H37.0966C36.6878 40.0644 36.3546 39.732 36.3546 39.3224C36.3546 38.9127 36.6878 38.5804 37.0966 38.5804H37.8387C39.0658 38.5804 40.0645 37.5818 40.0645 36.3545V28.1931H44.5161V40.0644Z" fill="#68EF4D"/>
<path d="M45.9998 26.7096H40.0644V21.516V20.774V2.22588C40.0644 0.998582 39.0658 0 37.8387 0H2.22588C0.998582 0 0 0.998582 0 2.22588V43.7741C0 45.0013 0.998582 46 2.22588 46H37.8387C39.0658 46 40.0645 45.0014 40.0645 43.7741V41.5482H46V26.7096H45.9998ZM1.48387 2.22588C1.48387 1.81625 1.81704 1.48387 2.22588 1.48387H37.8387C38.2475 1.48387 38.5807 1.81625 38.5807 2.22588V11.8709H1.48387V2.22588ZM29.8391 22.258H38.5805V34.2654C38.3475 34.1823 38.0998 34.1289 37.8385 34.1289H30.69C31.4594 32.5575 31.903 30.7992 31.903 28.9353C31.9032 26.4611 31.1397 24.1618 29.8391 22.258ZM30.4193 28.9355C30.4193 34.6631 25.7599 39.3225 20.0323 39.3225C14.3045 39.3225 9.64521 34.6631 9.64521 28.9355C9.64521 23.2078 14.3046 18.5484 20.0323 18.5484C25.7599 18.5484 30.4193 23.2078 30.4193 28.9355ZM36.3546 35.6128H37.8387C38.2475 35.6128 38.5807 35.9452 38.5807 36.3548C38.5807 36.7644 38.2475 37.0968 37.8387 37.0968H37.0966C36.8355 37.0968 36.5876 37.1501 36.3546 37.2332V35.6128ZM38.5807 43.7741H38.5805C38.5805 44.1836 38.2473 44.5161 37.8385 44.5161H2.22572C1.81688 44.5161 1.48371 44.1837 1.48371 43.7741V13.3548H38.5805V20.7741H28.6305C26.4663 18.4949 23.4161 17.0644 20.0323 17.0644C13.487 17.0644 8.16134 22.39 8.16134 28.9353C8.16134 35.4806 13.487 40.8062 20.0323 40.8062C24.1032 40.8062 27.7001 38.7451 29.8391 35.6126H34.8709V39.3224C34.8709 40.5495 35.8695 41.5482 37.0968 41.5482H38.5807V43.7741ZM44.5161 40.0644H44.516H37.0966C36.6878 40.0644 36.3546 39.732 36.3546 39.3224C36.3546 38.9127 36.6878 38.5804 37.0966 38.5804H37.8387C39.0658 38.5804 40.0645 37.5818 40.0645 36.3545V28.1931H44.5161V40.0644Z" fill="url(#paint11_linear)"/>
</g>
<defs>
<linearGradient id="paint0_linear" x1="20.0323" y1="20.7742" x2="20.0323" y2="37.0969" gradientUnits="userSpaceOnUse">
<stop offset="0.0364583" stop-color="#3CDAF8"/>
<stop offset="0.541667" stop-color="#80E7FA" stop-opacity="0.648649"/>
<stop offset="1" stop-color="white" stop-opacity="0"/>
</linearGradient>
<linearGradient id="paint1_linear" x1="8.90327" y1="2.96777" x2="8.90327" y2="10.3871" gradientUnits="userSpaceOnUse">
<stop offset="0.0364583" stop-color="#3CDAF8"/>
<stop offset="0.541667" stop-color="#80E7FA" stop-opacity="0.648649"/>
<stop offset="1" stop-color="white" stop-opacity="0"/>
</linearGradient>
<linearGradient id="paint2_linear" x1="20.7741" y1="2.96777" x2="20.7741" y2="10.3871" gradientUnits="userSpaceOnUse">
<stop offset="0.0364583" stop-color="#3CDAF8"/>
<stop offset="0.541667" stop-color="#80E7FA" stop-opacity="0.648649"/>
<stop offset="1" stop-color="white" stop-opacity="0"/>
</linearGradient>
<linearGradient id="paint3_linear" x1="32.2742" y1="4.45166" x2="32.2742" y2="5.93553" gradientUnits="userSpaceOnUse">
<stop offset="0.0364583" stop-color="#3CDAF8"/>
<stop offset="0.541667" stop-color="#80E7FA" stop-opacity="0.648649"/>
<stop offset="1" stop-color="white" stop-opacity="0"/>
</linearGradient>
<linearGradient id="paint4_linear" x1="32.2742" y1="7.41943" x2="32.2742" y2="8.9033" gradientUnits="userSpaceOnUse">
<stop offset="0.0364583" stop-color="#3CDAF8"/>
<stop offset="0.541667" stop-color="#80E7FA" stop-opacity="0.648649"/>
<stop offset="1" stop-color="white" stop-opacity="0"/>
</linearGradient>
<linearGradient id="paint5_linear" x1="27.4515" y1="4.45166" x2="27.4515" y2="5.93553" gradientUnits="userSpaceOnUse">
<stop offset="0.0364583" stop-color="#3CDAF8"/>
<stop offset="0.541667" stop-color="#80E7FA" stop-opacity="0.648649"/>
<stop offset="1" stop-color="white" stop-opacity="0"/>
</linearGradient>
<linearGradient id="paint6_linear" x1="27.4515" y1="7.41943" x2="27.4515" y2="8.9033" gradientUnits="userSpaceOnUse">
<stop offset="0.0364583" stop-color="#3CDAF8"/>
<stop offset="0.541667" stop-color="#80E7FA" stop-opacity="0.648649"/>
<stop offset="1" stop-color="white" stop-opacity="0"/>
</linearGradient>
<linearGradient id="paint7_linear" x1="14.8387" y1="4.45166" x2="14.8387" y2="5.93553" gradientUnits="userSpaceOnUse">
<stop offset="0.0364583" stop-color="#3CDAF8"/>
<stop offset="0.541667" stop-color="#80E7FA" stop-opacity="0.648649"/>
<stop offset="1" stop-color="white" stop-opacity="0"/>
</linearGradient>
<linearGradient id="paint8_linear" x1="14.8387" y1="7.41943" x2="14.8387" y2="8.9033" gradientUnits="userSpaceOnUse">
<stop offset="0.0364583" stop-color="#3CDAF8"/>
<stop offset="0.541667" stop-color="#80E7FA" stop-opacity="0.648649"/>
<stop offset="1" stop-color="white" stop-opacity="0"/>
</linearGradient>
<linearGradient id="paint9_linear" x1="3.70971" y1="41.5483" x2="3.70971" y2="43.0322" gradientUnits="userSpaceOnUse">
<stop offset="0.0364583" stop-color="#3CDAF8"/>
<stop offset="0.541667" stop-color="#80E7FA" stop-opacity="0.648649"/>
<stop offset="1" stop-color="white" stop-opacity="0"/>
</linearGradient>
<linearGradient id="paint10_linear" x1="6.67736" y1="41.5483" x2="6.67736" y2="43.0322" gradientUnits="userSpaceOnUse">
<stop offset="0.0364583" stop-color="#3CDAF8"/>
<stop offset="0.541667" stop-color="#80E7FA" stop-opacity="0.648649"/>
<stop offset="1" stop-color="white" stop-opacity="0"/>
</linearGradient>
<linearGradient id="paint11_linear" x1="23" y1="0" x2="23" y2="46" gradientUnits="userSpaceOnUse">
<stop offset="0.0364583" stop-color="#3CDAF8"/>
<stop offset="0.541667" stop-color="#80E7FA" stop-opacity="0.648649"/>
<stop offset="1" stop-color="white" stop-opacity="0"/>
</linearGradient>
<clipPath id="clip0">
<rect width="46" height="46" fill="white"/>
</clipPath>
</defs>
</svg>
