<svg width="46" height="46" viewBox="0 0 46 46" fill="none" xmlns="http://www.w3.org/2000/svg">
<path d="M39.3495 19.8091H23.9163V14.9607H26.5435C32.3337 14.9607 37.0443 10.2501 37.0443 4.45994V0.916318C37.0443 0.410227 36.6341 0 36.128 0H32.5845C28.3211 0 24.6433 2.55399 23 6.21235C21.3568 2.55399 17.6789 0 13.4156 0H9.87201C9.36592 0 8.9557 0.410227 8.9557 0.916318V4.45985C8.9557 10.25 13.6663 14.9606 19.4565 14.9606H22.0837V19.8091H6.65057C6.14448 19.8091 5.73425 20.2193 5.73425 20.7254V26.9358C5.73425 27.4419 6.14448 27.8522 6.65057 27.8522H9.3378L11.4356 42.2474C11.7473 44.3867 13.7484 45.9999 16.0903 45.9999H29.9098C32.2517 45.9999 34.2528 44.3867 34.5645 42.2474L36.6623 27.8522H39.3495C39.8556 27.8522 40.2659 27.4419 40.2659 26.9358V20.7254C40.2658 20.2195 39.8555 19.8091 39.3495 19.8091ZM23.9163 10.5008C23.9163 5.72117 27.8048 1.83273 32.5844 1.83273H35.2116V4.45994C35.2116 9.23955 31.3232 13.128 26.5435 13.128H25.2122L30.1316 8.20868C30.4894 7.85083 30.4894 7.27062 30.1316 6.91268C29.7737 6.55492 29.1935 6.55492 28.8356 6.91268L23.9163 11.8321V10.5008ZM13.3622 5.70257L20.7877 13.1281H19.4564C14.6768 13.1281 10.7883 9.23964 10.7883 4.45994V1.83264H13.4156C18.1952 1.83264 22.0837 5.72108 22.0837 10.5007V11.832L14.6582 4.40649C14.3003 4.04864 13.7201 4.04864 13.3622 4.40649C13.0043 4.76442 13.0043 5.34464 13.3622 5.70257ZM32.751 41.9833C32.5696 43.2285 31.348 44.1674 29.9097 44.1674H16.0903C14.652 44.1674 13.4306 43.2285 13.2491 41.9833L11.1898 27.8523H34.8102L32.751 41.9833ZM38.4332 26.0196H7.56689V21.6418H38.4332V26.0196Z" fill="#68EF4D"/>
<path d="M39.3495 19.8091H23.9163V14.9607H26.5435C32.3337 14.9607 37.0443 10.2501 37.0443 4.45994V0.916318C37.0443 0.410227 36.6341 0 36.128 0H32.5845C28.3211 0 24.6433 2.55399 23 6.21235C21.3568 2.55399 17.6789 0 13.4156 0H9.87201C9.36592 0 8.9557 0.410227 8.9557 0.916318V4.45985C8.9557 10.25 13.6663 14.9606 19.4565 14.9606H22.0837V19.8091H6.65057C6.14448 19.8091 5.73425 20.2193 5.73425 20.7254V26.9358C5.73425 27.4419 6.14448 27.8522 6.65057 27.8522H9.3378L11.4356 42.2474C11.7473 44.3867 13.7484 45.9999 16.0903 45.9999H29.9098C32.2517 45.9999 34.2528 44.3867 34.5645 42.2474L36.6623 27.8522H39.3495C39.8556 27.8522 40.2659 27.4419 40.2659 26.9358V20.7254C40.2658 20.2195 39.8555 19.8091 39.3495 19.8091ZM23.9163 10.5008C23.9163 5.72117 27.8048 1.83273 32.5844 1.83273H35.2116V4.45994C35.2116 9.23955 31.3232 13.128 26.5435 13.128H25.2122L30.1316 8.20868C30.4894 7.85083 30.4894 7.27062 30.1316 6.91268C29.7737 6.55492 29.1935 6.55492 28.8356 6.91268L23.9163 11.8321V10.5008ZM13.3622 5.70257L20.7877 13.1281H19.4564C14.6768 13.1281 10.7883 9.23964 10.7883 4.45994V1.83264H13.4156C18.1952 1.83264 22.0837 5.72108 22.0837 10.5007V11.832L14.6582 4.40649C14.3003 4.04864 13.7201 4.04864 13.3622 4.40649C13.0043 4.76442 13.0043 5.34464 13.3622 5.70257ZM32.751 41.9833C32.5696 43.2285 31.348 44.1674 29.9097 44.1674H16.0903C14.652 44.1674 13.4306 43.2285 13.2491 41.9833L11.1898 27.8523H34.8102L32.751 41.9833ZM38.4332 26.0196H7.56689V21.6418H38.4332V26.0196Z" fill="url(#paint0_linear)"/>
<path d="M32.6378 4.4066C32.28 4.04876 31.6998 4.04867 31.3419 4.4066L30.9818 4.76661C30.624 5.12446 30.6239 5.70458 30.9818 6.06251C31.1607 6.24148 31.3952 6.33088 31.6298 6.33088C31.8642 6.33088 32.0987 6.24148 32.2777 6.06251L32.6378 5.70251C32.9957 5.34466 32.9957 4.76454 32.6378 4.4066Z" fill="#68EF4D"/>
<path d="M32.6378 4.4066C32.28 4.04876 31.6998 4.04867 31.3419 4.4066L30.9818 4.76661C30.624 5.12446 30.6239 5.70458 30.9818 6.06251C31.1607 6.24148 31.3952 6.33088 31.6298 6.33088C31.8642 6.33088 32.0987 6.24148 32.2777 6.06251L32.6378 5.70251C32.9957 5.34466 32.9957 4.76454 32.6378 4.4066Z" fill="url(#paint1_linear)"/>
<defs>
<linearGradient id="paint0_linear" x1="23.0001" y1="0" x2="23.0001" y2="45.9999" gradientUnits="userSpaceOnUse">
<stop offset="0.0364583" stop-color="#3CDAF8"/>
<stop offset="0.541667" stop-color="#80E7FA" stop-opacity="0.648649"/>
<stop offset="1" stop-color="white" stop-opacity="0"/>
</linearGradient>
<linearGradient id="paint1_linear" x1="31.8098" y1="4.13818" x2="31.8098" y2="6.33088" gradientUnits="userSpaceOnUse">
<stop offset="0.0364583" stop-color="#3CDAF8"/>
<stop offset="0.541667" stop-color="#80E7FA" stop-opacity="0.648649"/>
<stop offset="1" stop-color="white" stop-opacity="0"/>
</linearGradient>
</defs>
</svg>
