<svg width="46" height="46" viewBox="0 0 46 46" fill="none" xmlns="http://www.w3.org/2000/svg">
<path d="M25.9377 20.7845H19.3554L20.7681 3.7988C20.7681 1.76282 19.1116 0.106201 17.0757 0.106201C15.0397 0.106201 13.3832 1.76282 13.3854 3.86025L14.7959 20.7845H8.21359C5.31503 20.7845 2.61135 23.1153 2.30996 25.869L0 45.8937H34.1515L31.8415 25.8742C31.5401 23.1153 28.8364 20.7845 25.9377 20.7845ZM17.0758 1.58337C18.2974 1.58337 19.2914 2.57734 19.2936 3.73752L17.8735 20.7845H16.2783L14.8602 3.79896C14.8602 2.5775 15.8542 1.58337 17.0758 1.58337ZM1.65724 44.4167L3.77815 26.0338C3.99384 24.0598 6.10813 22.2615 8.21359 22.2615H25.9377C28.0432 22.2615 30.1575 24.0598 30.3732 26.039L32.4941 44.4167H1.65724Z" fill="#68EF4D"/>
<path d="M25.9377 20.7845H19.3554L20.7681 3.7988C20.7681 1.76282 19.1116 0.106201 17.0757 0.106201C15.0397 0.106201 13.3832 1.76282 13.3854 3.86025L14.7959 20.7845H8.21359C5.31503 20.7845 2.61135 23.1153 2.30996 25.869L0 45.8937H34.1515L31.8415 25.8742C31.5401 23.1153 28.8364 20.7845 25.9377 20.7845ZM17.0758 1.58337C18.2974 1.58337 19.2914 2.57734 19.2936 3.73752L17.8735 20.7845H16.2783L14.8602 3.79896C14.8602 2.5775 15.8542 1.58337 17.0758 1.58337ZM1.65724 44.4167L3.77815 26.0338C3.99384 24.0598 6.10813 22.2615 8.21359 22.2615H25.9377C28.0432 22.2615 30.1575 24.0598 30.3732 26.039L32.4941 44.4167H1.65724Z" fill="url(#paint0_linear)"/>
<path d="M25.1993 23.7385H8.95218C6.85995 23.7385 5.51512 25.0553 5.26698 27.3262L3.05139 42.8347L4.51296 43.0438L6.73139 27.5109C6.95731 25.4534 8.10725 25.2155 8.95202 25.2155H25.1991C26.0441 25.2155 27.1938 25.4533 27.422 27.5359L29.6376 43.0444L31.0991 42.8354L28.8865 27.3511C28.6362 25.0555 27.2915 23.7385 25.1993 23.7385Z" fill="#68EF4D"/>
<path d="M25.1993 23.7385H8.95218C6.85995 23.7385 5.51512 25.0553 5.26698 27.3262L3.05139 42.8347L4.51296 43.0438L6.73139 27.5109C6.95731 25.4534 8.10725 25.2155 8.95202 25.2155H25.1991C26.0441 25.2155 27.1938 25.4533 27.422 27.5359L29.6376 43.0444L31.0991 42.8354L28.8865 27.3511C28.6362 25.0555 27.2915 23.7385 25.1993 23.7385Z" fill="url(#paint1_linear)"/>
<path d="M26.5537 0.106445L28.1533 10.5024V12.6611C28.1533 13.8826 29.1473 14.8767 30.3689 14.8767H34.0769L33.3227 34.0777C33.3227 35.955 34.3994 37.0317 36.2768 37.0317C38.1541 37.0317 39.2308 35.955 39.23 34.0488L38.4768 14.8765H42.1848C43.4063 14.8765 44.4004 13.8826 44.4004 12.661V10.5025L46 0.106603H26.5537V0.106445ZM36.2768 35.5547C35.2141 35.5547 34.7998 35.1403 34.799 34.1065L35.5544 14.8765H36.999L37.7538 34.0777C37.7538 35.1403 37.3394 35.5547 36.2768 35.5547ZM42.9232 12.661C42.9234 13.0679 42.5918 13.3995 42.1848 13.3995H30.3687C29.9618 13.3995 29.6301 13.0679 29.6301 12.661V11.1839H42.9284L42.9232 12.661ZM43.0282 9.70693H35.5382V4.53748H34.0612V9.70709H29.5172L28.2757 1.58346H41.3687L40.7114 8.15619L42.181 8.30318L42.8531 1.58282H44.2777L43.0282 9.70693Z" fill="#68EF4D"/>
<path d="M26.5537 0.106445L28.1533 10.5024V12.6611C28.1533 13.8826 29.1473 14.8767 30.3689 14.8767H34.0769L33.3227 34.0777C33.3227 35.955 34.3994 37.0317 36.2768 37.0317C38.1541 37.0317 39.2308 35.955 39.23 34.0488L38.4768 14.8765H42.1848C43.4063 14.8765 44.4004 13.8826 44.4004 12.661V10.5025L46 0.106603H26.5537V0.106445ZM36.2768 35.5547C35.2141 35.5547 34.7998 35.1403 34.799 34.1065L35.5544 14.8765H36.999L37.7538 34.0777C37.7538 35.1403 37.3394 35.5547 36.2768 35.5547ZM42.9232 12.661C42.9234 13.0679 42.5918 13.3995 42.1848 13.3995H30.3687C29.9618 13.3995 29.6301 13.0679 29.6301 12.661V11.1839H42.9284L42.9232 12.661ZM43.0282 9.70693H35.5382V4.53748H34.0612V9.70709H29.5172L28.2757 1.58346H41.3687L40.7114 8.15619L42.181 8.30318L42.8531 1.58282H44.2777L43.0282 9.70693Z" fill="url(#paint2_linear)"/>
<path d="M35.5383 2.3219H34.0613V3.79891H35.5383V2.3219Z" fill="#68EF4D"/>
<path d="M35.5383 2.3219H34.0613V3.79891H35.5383V2.3219Z" fill="url(#paint3_linear)"/>
<path d="M38.4924 6.75281H37.0154V8.22982H38.4924V6.75281Z" fill="#68EF4D"/>
<path d="M38.4924 6.75281H37.0154V8.22982H38.4924V6.75281Z" fill="url(#paint4_linear)"/>
<path d="M9.69063 26.6925H8.21362V28.1695H9.69063V26.6925Z" fill="#68EF4D"/>
<path d="M9.69063 26.6925H8.21362V28.1695H9.69063V26.6925Z" fill="url(#paint5_linear)"/>
<path d="M24.4607 41.4626H22.9836V42.9397H24.4607V41.4626Z" fill="#68EF4D"/>
<path d="M24.4607 41.4626H22.9836V42.9397H24.4607V41.4626Z" fill="url(#paint6_linear)"/>
<path d="M27.4148 41.4626H25.9377V42.9397H27.4148V41.4626Z" fill="#68EF4D"/>
<path d="M27.4148 41.4626H25.9377V42.9397H27.4148V41.4626Z" fill="url(#paint7_linear)"/>
<defs>
<linearGradient id="paint0_linear" x1="17.0757" y1="0.106201" x2="17.0757" y2="45.8937" gradientUnits="userSpaceOnUse">
<stop offset="0.0364583" stop-color="#3CDAF8"/>
<stop offset="0.541667" stop-color="#80E7FA" stop-opacity="0.648649"/>
<stop offset="1" stop-color="white" stop-opacity="0"/>
</linearGradient>
<linearGradient id="paint1_linear" x1="17.0753" y1="23.7385" x2="17.0753" y2="43.0444" gradientUnits="userSpaceOnUse">
<stop offset="0.0364583" stop-color="#3CDAF8"/>
<stop offset="0.541667" stop-color="#80E7FA" stop-opacity="0.648649"/>
<stop offset="1" stop-color="white" stop-opacity="0"/>
</linearGradient>
<linearGradient id="paint2_linear" x1="36.2768" y1="0.106445" x2="36.2768" y2="37.0317" gradientUnits="userSpaceOnUse">
<stop offset="0.0364583" stop-color="#3CDAF8"/>
<stop offset="0.541667" stop-color="#80E7FA" stop-opacity="0.648649"/>
<stop offset="1" stop-color="white" stop-opacity="0"/>
</linearGradient>
<linearGradient id="paint3_linear" x1="34.7998" y1="2.3219" x2="34.7998" y2="3.79891" gradientUnits="userSpaceOnUse">
<stop offset="0.0364583" stop-color="#3CDAF8"/>
<stop offset="0.541667" stop-color="#80E7FA" stop-opacity="0.648649"/>
<stop offset="1" stop-color="white" stop-opacity="0"/>
</linearGradient>
<linearGradient id="paint4_linear" x1="37.7539" y1="6.75281" x2="37.7539" y2="8.22982" gradientUnits="userSpaceOnUse">
<stop offset="0.0364583" stop-color="#3CDAF8"/>
<stop offset="0.541667" stop-color="#80E7FA" stop-opacity="0.648649"/>
<stop offset="1" stop-color="white" stop-opacity="0"/>
</linearGradient>
<linearGradient id="paint5_linear" x1="8.95213" y1="26.6925" x2="8.95213" y2="28.1695" gradientUnits="userSpaceOnUse">
<stop offset="0.0364583" stop-color="#3CDAF8"/>
<stop offset="0.541667" stop-color="#80E7FA" stop-opacity="0.648649"/>
<stop offset="1" stop-color="white" stop-opacity="0"/>
</linearGradient>
<linearGradient id="paint6_linear" x1="23.7221" y1="41.4626" x2="23.7221" y2="42.9397" gradientUnits="userSpaceOnUse">
<stop offset="0.0364583" stop-color="#3CDAF8"/>
<stop offset="0.541667" stop-color="#80E7FA" stop-opacity="0.648649"/>
<stop offset="1" stop-color="white" stop-opacity="0"/>
</linearGradient>
<linearGradient id="paint7_linear" x1="26.6762" y1="41.4626" x2="26.6762" y2="42.9397" gradientUnits="userSpaceOnUse">
<stop offset="0.0364583" stop-color="#3CDAF8"/>
<stop offset="0.541667" stop-color="#80E7FA" stop-opacity="0.648649"/>
<stop offset="1" stop-color="white" stop-opacity="0"/>
</linearGradient>
</defs>
</svg>
